<mxfile host="app.diagrams.net" modified="2020-07-03T22:16:28.472Z" agent="5.0 (Macintosh; Intel Mac OS X 10_15_5) AppleWebKit/537.36 (KHTML, like Gecko) Chrome/83.0.4103.116 Safari/537.36" etag="C0uf2l6G8Fgb19bXCypo" version="13.3.7" type="github">
  <diagram id="cac6F2UHl2-vWafH4ojS" name="Page-1">
    <mxGraphModel dx="1426" dy="746" grid="1" gridSize="10" guides="1" tooltips="1" connect="1" arrows="1" fold="1" page="1" pageScale="1" pageWidth="850" pageHeight="1100" math="0" shadow="0">
      <root>
        <mxCell id="0" />
        <mxCell id="1" parent="0" />
        <mxCell id="D6jTDiBMNHx8heSNOERN-56" value="Load Existing Session" style="swimlane;" vertex="1" parent="1">
          <mxGeometry x="40" y="320" width="360" height="530" as="geometry" />
        </mxCell>
        <mxCell id="D6jTDiBMNHx8heSNOERN-14" value="UI" style="swimlane;startSize=20;horizontal=0;" vertex="1" parent="D6jTDiBMNHx8heSNOERN-56">
          <mxGeometry y="23.5" width="360" height="125.5" as="geometry" />
        </mxCell>
        <mxCell id="D6jTDiBMNHx8heSNOERN-18" value="Load Session" style="rounded=1;whiteSpace=wrap;html=1;" vertex="1" parent="D6jTDiBMNHx8heSNOERN-14">
          <mxGeometry x="40" y="30.5" width="120" height="60" as="geometry" />
        </mxCell>
        <mxCell id="D6jTDiBMNHx8heSNOERN-53" value="Update state from JSON" style="rounded=1;whiteSpace=wrap;html=1;" vertex="1" parent="D6jTDiBMNHx8heSNOERN-14">
          <mxGeometry x="225" y="30.5" width="120" height="60" as="geometry" />
        </mxCell>
        <mxCell id="D6jTDiBMNHx8heSNOERN-15" value="API Gateway" style="swimlane;startSize=20;horizontal=0;" vertex="1" parent="D6jTDiBMNHx8heSNOERN-56">
          <mxGeometry y="149" width="360" height="140.5" as="geometry" />
        </mxCell>
        <mxCell id="D6jTDiBMNHx8heSNOERN-30" value="GET request w/ id query param" style="rounded=1;whiteSpace=wrap;html=1;" vertex="1" parent="D6jTDiBMNHx8heSNOERN-15">
          <mxGeometry x="40" y="31" width="120" height="60" as="geometry" />
        </mxCell>
        <mxCell id="D6jTDiBMNHx8heSNOERN-42" value="HTTP JSON response" style="rounded=1;whiteSpace=wrap;html=1;" vertex="1" parent="D6jTDiBMNHx8heSNOERN-15">
          <mxGeometry x="225" y="31" width="120" height="60" as="geometry" />
        </mxCell>
        <mxCell id="D6jTDiBMNHx8heSNOERN-16" value="Lambda Function" style="swimlane;startSize=20;horizontal=0;" vertex="1" parent="D6jTDiBMNHx8heSNOERN-56">
          <mxGeometry y="289.5" width="360" height="120" as="geometry" />
        </mxCell>
        <mxCell id="D6jTDiBMNHx8heSNOERN-32" value="Get Session by ID" style="rounded=1;whiteSpace=wrap;html=1;" vertex="1" parent="D6jTDiBMNHx8heSNOERN-16">
          <mxGeometry x="40" y="29" width="120" height="60" as="geometry" />
        </mxCell>
        <mxCell id="D6jTDiBMNHx8heSNOERN-41" value="Process result to JSON" style="rounded=1;whiteSpace=wrap;html=1;" vertex="1" parent="D6jTDiBMNHx8heSNOERN-16">
          <mxGeometry x="225" y="29" width="120" height="60" as="geometry" />
        </mxCell>
        <mxCell id="D6jTDiBMNHx8heSNOERN-17" value="DynamoDB" style="swimlane;startSize=20;horizontal=0;" vertex="1" parent="D6jTDiBMNHx8heSNOERN-56">
          <mxGeometry y="409.5" width="360" height="120" as="geometry" />
        </mxCell>
        <mxCell id="D6jTDiBMNHx8heSNOERN-37" value="" style="edgeStyle=orthogonalEdgeStyle;rounded=0;orthogonalLoop=1;jettySize=auto;html=1;" edge="1" parent="D6jTDiBMNHx8heSNOERN-17" source="D6jTDiBMNHx8heSNOERN-34" target="D6jTDiBMNHx8heSNOERN-36">
          <mxGeometry relative="1" as="geometry" />
        </mxCell>
        <mxCell id="D6jTDiBMNHx8heSNOERN-34" value="Get Item from DB" style="rounded=1;whiteSpace=wrap;html=1;" vertex="1" parent="D6jTDiBMNHx8heSNOERN-17">
          <mxGeometry x="40" y="43.5" width="120" height="60" as="geometry" />
        </mxCell>
        <mxCell id="D6jTDiBMNHx8heSNOERN-36" value="Return result" style="rounded=1;whiteSpace=wrap;html=1;" vertex="1" parent="D6jTDiBMNHx8heSNOERN-17">
          <mxGeometry x="225" y="43.5" width="120" height="60" as="geometry" />
        </mxCell>
        <mxCell id="D6jTDiBMNHx8heSNOERN-29" value="" style="edgeStyle=orthogonalEdgeStyle;rounded=0;orthogonalLoop=1;jettySize=auto;html=1;exitX=0.5;exitY=1;exitDx=0;exitDy=0;entryX=0.5;entryY=0;entryDx=0;entryDy=0;" edge="1" parent="D6jTDiBMNHx8heSNOERN-56" source="D6jTDiBMNHx8heSNOERN-18" target="D6jTDiBMNHx8heSNOERN-30">
          <mxGeometry relative="1" as="geometry">
            <mxPoint x="280" y="173.75" as="targetPoint" />
          </mxGeometry>
        </mxCell>
        <mxCell id="D6jTDiBMNHx8heSNOERN-33" value="" style="edgeStyle=orthogonalEdgeStyle;rounded=0;orthogonalLoop=1;jettySize=auto;html=1;" edge="1" parent="D6jTDiBMNHx8heSNOERN-56" source="D6jTDiBMNHx8heSNOERN-30" target="D6jTDiBMNHx8heSNOERN-32">
          <mxGeometry relative="1" as="geometry" />
        </mxCell>
        <mxCell id="D6jTDiBMNHx8heSNOERN-35" value="" style="edgeStyle=orthogonalEdgeStyle;rounded=0;orthogonalLoop=1;jettySize=auto;html=1;" edge="1" parent="D6jTDiBMNHx8heSNOERN-56" source="D6jTDiBMNHx8heSNOERN-32" target="D6jTDiBMNHx8heSNOERN-34">
          <mxGeometry relative="1" as="geometry" />
        </mxCell>
        <mxCell id="D6jTDiBMNHx8heSNOERN-39" value="" style="edgeStyle=orthogonalEdgeStyle;rounded=0;orthogonalLoop=1;jettySize=auto;html=1;entryX=0.5;entryY=1;entryDx=0;entryDy=0;" edge="1" parent="D6jTDiBMNHx8heSNOERN-56" source="D6jTDiBMNHx8heSNOERN-36" target="D6jTDiBMNHx8heSNOERN-41">
          <mxGeometry relative="1" as="geometry">
            <mxPoint x="480" y="378.5" as="targetPoint" />
          </mxGeometry>
        </mxCell>
        <mxCell id="D6jTDiBMNHx8heSNOERN-43" value="" style="edgeStyle=orthogonalEdgeStyle;rounded=0;orthogonalLoop=1;jettySize=auto;html=1;" edge="1" parent="D6jTDiBMNHx8heSNOERN-56" source="D6jTDiBMNHx8heSNOERN-41" target="D6jTDiBMNHx8heSNOERN-42">
          <mxGeometry relative="1" as="geometry" />
        </mxCell>
        <mxCell id="D6jTDiBMNHx8heSNOERN-54" value="" style="edgeStyle=orthogonalEdgeStyle;rounded=0;orthogonalLoop=1;jettySize=auto;html=1;" edge="1" parent="D6jTDiBMNHx8heSNOERN-56" source="D6jTDiBMNHx8heSNOERN-42" target="D6jTDiBMNHx8heSNOERN-53">
          <mxGeometry relative="1" as="geometry" />
        </mxCell>
        <mxCell id="D6jTDiBMNHx8heSNOERN-57" value="Create New Session" style="swimlane;" vertex="1" parent="1">
          <mxGeometry x="410" y="320" width="360" height="530" as="geometry" />
        </mxCell>
        <mxCell id="D6jTDiBMNHx8heSNOERN-58" value="UI" style="swimlane;startSize=20;horizontal=0;" vertex="1" parent="D6jTDiBMNHx8heSNOERN-57">
          <mxGeometry y="23.5" width="360" height="125.5" as="geometry" />
        </mxCell>
        <mxCell id="D6jTDiBMNHx8heSNOERN-59" value="New Session" style="rounded=1;whiteSpace=wrap;html=1;" vertex="1" parent="D6jTDiBMNHx8heSNOERN-58">
          <mxGeometry x="40" y="30.5" width="120" height="60" as="geometry" />
        </mxCell>
        <mxCell id="D6jTDiBMNHx8heSNOERN-60" value="Update state from JSON" style="rounded=1;whiteSpace=wrap;html=1;" vertex="1" parent="D6jTDiBMNHx8heSNOERN-58">
          <mxGeometry x="225" y="30.5" width="120" height="60" as="geometry" />
        </mxCell>
        <mxCell id="D6jTDiBMNHx8heSNOERN-61" value="API Gateway" style="swimlane;startSize=20;horizontal=0;" vertex="1" parent="D6jTDiBMNHx8heSNOERN-57">
          <mxGeometry y="149" width="360" height="140.5" as="geometry" />
        </mxCell>
        <mxCell id="D6jTDiBMNHx8heSNOERN-62" value="POST request w/ state as JSON body" style="rounded=1;whiteSpace=wrap;html=1;" vertex="1" parent="D6jTDiBMNHx8heSNOERN-61">
          <mxGeometry x="40" y="31" width="120" height="60" as="geometry" />
        </mxCell>
        <mxCell id="D6jTDiBMNHx8heSNOERN-63" value="HTTP JSON response" style="rounded=1;whiteSpace=wrap;html=1;" vertex="1" parent="D6jTDiBMNHx8heSNOERN-61">
          <mxGeometry x="225" y="31" width="120" height="60" as="geometry" />
        </mxCell>
        <mxCell id="D6jTDiBMNHx8heSNOERN-64" value="Lambda Function" style="swimlane;startSize=20;horizontal=0;" vertex="1" parent="D6jTDiBMNHx8heSNOERN-57">
          <mxGeometry y="289.5" width="360" height="120" as="geometry" />
        </mxCell>
        <mxCell id="D6jTDiBMNHx8heSNOERN-65" value="Save session" style="rounded=1;whiteSpace=wrap;html=1;" vertex="1" parent="D6jTDiBMNHx8heSNOERN-64">
          <mxGeometry x="40" y="29" width="120" height="60" as="geometry" />
        </mxCell>
        <mxCell id="D6jTDiBMNHx8heSNOERN-66" value="Process result to JSON" style="rounded=1;whiteSpace=wrap;html=1;" vertex="1" parent="D6jTDiBMNHx8heSNOERN-64">
          <mxGeometry x="225" y="29" width="120" height="60" as="geometry" />
        </mxCell>
        <mxCell id="D6jTDiBMNHx8heSNOERN-67" value="DynamoDB" style="swimlane;startSize=20;horizontal=0;" vertex="1" parent="D6jTDiBMNHx8heSNOERN-57">
          <mxGeometry y="409.5" width="360" height="120" as="geometry" />
        </mxCell>
        <mxCell id="D6jTDiBMNHx8heSNOERN-68" value="" style="edgeStyle=orthogonalEdgeStyle;rounded=0;orthogonalLoop=1;jettySize=auto;html=1;" edge="1" parent="D6jTDiBMNHx8heSNOERN-67" source="D6jTDiBMNHx8heSNOERN-69" target="D6jTDiBMNHx8heSNOERN-70">
          <mxGeometry relative="1" as="geometry" />
        </mxCell>
        <mxCell id="D6jTDiBMNHx8heSNOERN-69" value="Put Item in DB" style="rounded=1;whiteSpace=wrap;html=1;" vertex="1" parent="D6jTDiBMNHx8heSNOERN-67">
          <mxGeometry x="40" y="43.5" width="120" height="60" as="geometry" />
        </mxCell>
        <mxCell id="D6jTDiBMNHx8heSNOERN-70" value="Return result" style="rounded=1;whiteSpace=wrap;html=1;" vertex="1" parent="D6jTDiBMNHx8heSNOERN-67">
          <mxGeometry x="225" y="43.5" width="120" height="60" as="geometry" />
        </mxCell>
        <mxCell id="D6jTDiBMNHx8heSNOERN-71" value="" style="edgeStyle=orthogonalEdgeStyle;rounded=0;orthogonalLoop=1;jettySize=auto;html=1;exitX=0.5;exitY=1;exitDx=0;exitDy=0;entryX=0.5;entryY=0;entryDx=0;entryDy=0;" edge="1" parent="D6jTDiBMNHx8heSNOERN-57" source="D6jTDiBMNHx8heSNOERN-59" target="D6jTDiBMNHx8heSNOERN-62">
          <mxGeometry relative="1" as="geometry">
            <mxPoint x="280" y="173.75" as="targetPoint" />
          </mxGeometry>
        </mxCell>
        <mxCell id="D6jTDiBMNHx8heSNOERN-72" value="" style="edgeStyle=orthogonalEdgeStyle;rounded=0;orthogonalLoop=1;jettySize=auto;html=1;" edge="1" parent="D6jTDiBMNHx8heSNOERN-57" source="D6jTDiBMNHx8heSNOERN-62" target="D6jTDiBMNHx8heSNOERN-65">
          <mxGeometry relative="1" as="geometry" />
        </mxCell>
        <mxCell id="D6jTDiBMNHx8heSNOERN-73" value="" style="edgeStyle=orthogonalEdgeStyle;rounded=0;orthogonalLoop=1;jettySize=auto;html=1;" edge="1" parent="D6jTDiBMNHx8heSNOERN-57" source="D6jTDiBMNHx8heSNOERN-65" target="D6jTDiBMNHx8heSNOERN-69">
          <mxGeometry relative="1" as="geometry" />
        </mxCell>
        <mxCell id="D6jTDiBMNHx8heSNOERN-74" value="" style="edgeStyle=orthogonalEdgeStyle;rounded=0;orthogonalLoop=1;jettySize=auto;html=1;entryX=0.5;entryY=1;entryDx=0;entryDy=0;" edge="1" parent="D6jTDiBMNHx8heSNOERN-57" source="D6jTDiBMNHx8heSNOERN-70" target="D6jTDiBMNHx8heSNOERN-66">
          <mxGeometry relative="1" as="geometry">
            <mxPoint x="480" y="378.5" as="targetPoint" />
          </mxGeometry>
        </mxCell>
        <mxCell id="D6jTDiBMNHx8heSNOERN-75" value="" style="edgeStyle=orthogonalEdgeStyle;rounded=0;orthogonalLoop=1;jettySize=auto;html=1;" edge="1" parent="D6jTDiBMNHx8heSNOERN-57" source="D6jTDiBMNHx8heSNOERN-66" target="D6jTDiBMNHx8heSNOERN-63">
          <mxGeometry relative="1" as="geometry" />
        </mxCell>
        <mxCell id="D6jTDiBMNHx8heSNOERN-76" value="" style="edgeStyle=orthogonalEdgeStyle;rounded=0;orthogonalLoop=1;jettySize=auto;html=1;" edge="1" parent="D6jTDiBMNHx8heSNOERN-57" source="D6jTDiBMNHx8heSNOERN-63" target="D6jTDiBMNHx8heSNOERN-60">
          <mxGeometry relative="1" as="geometry" />
        </mxCell>
      </root>
    </mxGraphModel>
  </diagram>
</mxfile>
